<svg width="17" height="17" viewBox="0 0 17 17" fill="none" xmlns="http://www.w3.org/2000/svg">
<path d="M2.30953 4.80951H14.6905C14.9535 4.80951 15.1667 4.59633 15.1667 4.33332V3.14285C15.1667 2.87984 14.9535 2.66666 14.6905 2.66666H2.30953C2.04653 2.66666 1.83334 2.87984 1.83334 3.14285V4.33332C1.83334 4.59633 2.04653 4.80951 2.30953 4.80951ZM2.30953 9.57142H14.6905C14.9535 9.57142 15.1667 9.35823 15.1667 9.09523V7.90475C15.1667 7.64175 14.9535 7.42856 14.6905 7.42856H2.30953C2.04653 7.42856 1.83334 7.64175 1.83334 7.90475V9.09523C1.83334 9.35823 2.04653 9.57142 2.30953 9.57142ZM2.30953 14.3333H14.6905C14.9535 14.3333 15.1667 14.1201 15.1667 13.8571V12.6667C15.1667 12.4037 14.9535 12.1905 14.6905 12.1905H2.30953C2.04653 12.1905 1.83334 12.4037 1.83334 12.6667V13.8571C1.83334 14.1201 2.04653 14.3333 2.30953 14.3333Z" fill="#333333"/>
</svg>
