<svg width="16" height="17" viewBox="0 0 16 17" fill="none" xmlns="http://www.w3.org/2000/svg">
<path d="M14.4842 13.3609L11.8881 10.7648C11.771 10.6476 11.6121 10.5825 11.4455 10.5825H11.021C11.7397 9.66331 12.1667 8.50717 12.1667 7.24948C12.1667 4.25759 9.74251 1.83334 6.75061 1.83334C3.75871 1.83334 1.33447 4.25759 1.33447 7.24948C1.33447 10.2414 3.75871 12.6656 6.75061 12.6656C8.0083 12.6656 9.16444 12.2386 10.0836 11.5199V11.9443C10.0836 12.111 10.1487 12.2698 10.2659 12.387L12.862 14.9831C13.1068 15.2279 13.5026 15.2279 13.7447 14.9831L14.4816 14.2462C14.7264 14.0014 14.7264 13.6056 14.4842 13.3609ZM6.75061 10.5825C4.90964 10.5825 3.4176 9.09305 3.4176 7.24948C3.4176 5.40852 4.90704 3.91647 6.75061 3.91647C8.59158 3.91647 10.0836 5.40591 10.0836 7.24948C10.0836 9.09045 8.59418 10.5825 6.75061 10.5825Z" fill="#6A778B"/>
</svg>
